<?xml version="1.0" standalone="no"?>
<!DOCTYPE svg PUBLIC "-//W3C//DTD SVG 20010904//EN"
 "http://www.w3.org/TR/2001/REC-SVG-20010904/DTD/svg10.dtd">
<svg version="1.0" xmlns="http://www.w3.org/2000/svg"
 width="1027.000000pt" height="717.000000pt" viewBox="0 0 1027.000000 717.000000"
 preserveAspectRatio="xMidYMid meet">

<g transform="translate(0.000000,717.000000) scale(0.100000,-0.100000)"
fill="#bbb" stroke="none">
<path d="M470 6252 l0 -592 885 0 885 0 0 -2660 0 -2660 770 0 770 0 0 2660 0
2660 1825 0 1825 0 0 585 0 585 -1682 0 c-926 0 -2492 3 -3480 7 l-1798 6 0
-591z"/>
<path d="M8380 5475 l0 -1355 -1125 0 -1125 0 0 355 0 355 -700 0 -700 0 0
-2245 0 -2245 698 0 697 0 -3 1360 -3 1360 1130 0 1131 0 0 -1355 0 -1355 705
0 705 0 0 3240 0 3240 -705 0 -705 0 0 -1355z"/>
</g>
</svg>
