<svg xmlns="http://www.w3.org/2000/svg" fill="#eee" viewBox="200 200 600 600">
<g>
	<path d="M618.166,700.78c-45.981,0-83.264-37.285-83.264-83.273
		c0-45.966,37.283-83.271,83.264-83.271c45.983,0,83.266,37.305,83.266,83.271C701.432,663.495,664.149,700.78,618.166,700.78
		 M452.075,509.92c-28.747,0-52.04-23.317-52.04-52.045c0-28.751,23.293-52.047,52.04-52.047c28.747,0,52.04,23.296,52.04,52.047
		C504.115,486.603,480.822,509.92,452.075,509.92 M621.851,347.453H482.882c-70.815,0-128.269,57.459-128.269,128.304v138.961
		c0,70.866,57.454,128.282,128.269,128.282h138.969c70.858,0,128.269-57.416,128.269-128.282V475.757
		C750.12,404.912,692.709,347.453,621.851,347.453"/>
	<path d="M333.144,298.637c0,23.004-18.652,41.637-41.631,41.637
		c-23.002,0-41.633-18.633-41.633-41.637c0-22.983,18.631-41.637,41.633-41.637C314.492,257,333.144,275.653,333.144,298.637"/>
</g>
</svg>
